<svg version="1.1" id="Layer_1" xmlns="http://www.w3.org/2000/svg" xmlns:xlink="http://www.w3.org/1999/xlink" x="0px" y="0px"
	 width="100%" viewBox="0 0 336 336" enable-background="new 0 0 336 336" xml:space="preserve">
<path fill="#4c91db" opacity="1.000000" stroke="none" 
	d="
M183.261887,291.262115 
	C188.809921,285.708435 194.070694,280.366943 199.413742,275.109100 
	C202.374527,272.195496 202.898636,269.729034 199.710281,266.277618 
	C193.404404,259.451447 193.684479,257.485504 200.324829,250.994537 
	C210.395599,241.150253 211.915833,241.360703 218.983994,253.551178 
	C219.137924,253.816650 219.482407,253.971649 219.759476,254.195541 
	C221.478119,254.338715 222.472656,253.112427 223.505905,252.072769 
	C233.719955,241.795486 244.156693,231.739899 253.648346,220.757401 
	C265.997498,206.468597 270.443390,176.501511 255.214539,159.793472 
	C244.956345,148.538879 232.348892,143.482681 217.516998,143.371323 
	C197.858170,143.223709 178.197372,143.337997 158.537430,143.335114 
	C157.600037,143.334976 156.571548,143.770096 155.540878,142.676926 
	C156.797226,139.470627 159.714630,137.625961 161.943802,135.343582 
	C188.940674,107.702354 216.245834,80.366745 243.102982,52.582706 
	C256.337677,38.891281 252.051102,41.240456 265.867004,51.306751 
	C269.356537,53.849236 272.377533,57.028252 275.815735,59.649998 
	C278.294128,61.539860 278.208130,63.068146 276.337616,65.357697 
	C271.801025,70.910484 267.082092,76.267563 261.902771,81.239983 
	C258.384491,84.617691 254.994659,88.205315 256.652832,93.830421 
	C258.341644,99.559570 261.086487,100.751663 266.234619,97.672028 
	C270.594330,95.064034 273.603302,90.973930 276.877594,87.216431 
	C279.283142,84.455902 281.509766,81.540176 283.845215,78.717682 
	C286.719849,75.243652 289.160248,75.372276 292.339050,78.847549 
	C304.387360,92.019485 312.465271,107.567833 318.177460,124.124641 
	C331.399597,162.449097 329.659119,200.379272 310.757172,236.454483 
	C296.466492,263.728882 276.429291,286.355164 249.538895,302.160858 
	C233.298615,311.706573 215.461365,315.914276 196.784531,317.428284 
	C185.636154,318.331970 174.512100,318.339874 163.364395,318.223724 
	C161.908066,318.208557 160.363327,318.565125 158.089127,316.983185 
	C165.978043,307.950500 174.399857,299.643799 183.261887,291.262115 
z"/>
<path fill="#0062CC" opacity="1.000000" stroke="none" 
	d="
M197.316498,24.670437 
	C191.554459,32.183102 184.397675,38.136677 177.867157,44.712086 
	C152.396973,70.357368 126.192795,95.309196 101.499657,121.678299 
	C84.888062,139.417343 81.742485,163.713242 95.545738,183.126465 
	C104.154701,195.234299 116.090790,202.011368 130.819626,201.486755 
	C151.819748,200.738831 172.775604,202.053040 193.750397,201.647980 
	C195.206406,201.619843 196.741440,201.187119 198.767639,202.406540 
	C196.036896,205.548111 192.559677,207.715149 189.663147,210.355576 
	C167.004532,231.010880 145.407776,252.772827 123.178017,273.872772 
	C115.455742,281.202545 108.282135,289.127991 101.106926,297.008118 
	C98.108376,300.301208 96.055298,300.389557 93.137535,296.944580 
	C87.607269,290.415039 79.479912,286.906372 73.650261,280.616058 
	C69.061935,275.665131 68.776581,275.572906 73.616562,270.659729 
	C78.518646,265.683441 83.306900,260.586792 88.933792,256.343933 
	C91.829971,254.160126 94.616669,251.633209 95.996758,248.078705 
	C97.132790,245.152756 97.432022,242.104828 95.269119,239.557144 
	C93.044022,236.936203 90.076607,237.086182 86.983131,237.961777 
	C83.830238,238.854172 81.269554,240.543747 78.995834,242.851608 
	C73.617073,248.311127 68.078194,253.615875 62.790451,259.160980 
	C59.586277,262.521088 57.289322,262.454895 54.510708,258.548157 
	C41.846302,240.742157 33.951656,220.973709 29.679689,199.651062 
	C24.071377,171.658310 26.875298,144.427933 36.922211,117.809418 
	C45.062092,96.243431 59.224590,79.051453 75.555611,63.235260 
	C104.112717,35.578392 138.853058,24.287228 177.786880,23.884899 
	C184.228516,23.818331 190.724792,23.014668 197.316498,24.670437 
z"/>
<path fill="#000000" opacity="1.000000" stroke="none" 
	d="
M286.413330,50.053444 
	C285.304382,45.532295 285.144714,41.367458 286.251099,37.292816 
	C288.789001,27.946049 296.625702,22.504940 307.000183,22.676006 
	C317.314972,22.846088 325.504578,28.985344 328.175537,38.549931 
	C331.519501,50.524406 325.883881,61.172123 314.153717,65.042168 
	C301.255676,69.297539 291.575806,64.185341 286.413330,50.053444 
z"/>
<path fill="#000000" opacity="1.000000" stroke="none" 
	d="
M278.720642,320.258789 
	C271.924469,322.293457 268.363373,321.337982 266.150635,317.201324 
	C263.764496,312.740540 265.313507,309.287537 268.724792,306.132111 
	C276.909088,298.561676 285.063965,290.958344 293.157867,283.291382 
	C301.524017,275.366516 308.517334,266.246246 315.615814,257.219269 
	C317.938446,254.265594 320.608185,251.240845 324.811890,253.141571 
	C329.146271,255.101379 330.218384,259.333588 330.002106,263.657532 
	C329.745697,268.783417 327.871796,273.523529 324.213531,277.148438 
	C310.624847,290.613251 297.527283,304.583038 283.212128,317.303436 
	C281.981079,318.397339 280.469910,319.175964 278.720642,320.258789 
z"/>
<path fill="#000000" opacity="1.000000" stroke="none" 
	d="
M53.751709,315.168701 
	C40.675507,319.209137 30.628065,314.101074 26.619957,301.687897 
	C23.278690,291.339966 28.601652,280.295349 38.545624,276.943298 
	C48.296940,273.656189 59.294682,277.445587 63.891415,285.676483 
	C69.251137,295.273590 67.214790,305.207886 58.336090,312.399841 
	C57.057194,313.435760 55.534950,314.171295 53.751709,315.168701 
z"/>
<path fill="#000000" opacity="1.000000" stroke="none" 
	d="
M71.357285,49.356266 
	C59.600094,61.130680 47.904488,72.467529 38.491497,85.901222 
	C34.950504,90.954727 31.228359,91.869804 27.534180,89.497414 
	C23.386965,86.834106 22.192253,81.019447 25.077400,76.186714 
	C28.844791,69.876175 33.782166,64.408493 38.677208,59.006676 
	C46.598412,50.265411 54.925587,41.889011 63.171978,33.447083 
	C66.082001,30.468058 69.300766,27.782846 73.385246,26.501127 
	C77.466942,25.220284 81.218491,25.999313 83.452560,29.736834 
	C85.521568,33.198204 84.929230,36.892887 81.962852,39.768993 
	C78.627937,43.002415 75.072159,46.008041 71.357285,49.356266 
z"/>
</svg>